<svg width="486" height="372" fill="none" xmlns="http://www.w3.org/2000/svg"><path d="m161.61 59.29-2.97 5.18h-2.86l-.96 1.48h2.97l-6.47 10.99c-1.38 2.32-.43 4.44 2.23 4.44 1.9 0 3.92-1.38 5.94-3.28 0 4.01 5.62 4.75 9.12.53h.75a9.98 9.98 0 0 0 6.58-3.07c-.22-.42-.75-.95-1.17-1.05l-.21.2a6.66 6.66 0 0 1-4.88 2.33l2.97-5.07c1.9-3.28.1-6.45-2.87-6.45-2.44 0-4.35.95-6.26 4.12l-1.6 2.75-1.26 2.22-.22.21c-2.33 2.64-4.56 4.76-5.94 4.76-.74 0-1.06-.53-.32-1.7l6.9-11.83h2.65l.75-1.58h-2.66l2.97-5.18h-3.18Zm7.96 8.24c1.06.1 1.49 1.37.42 3.17l-2.33 3.91h-.1a1.9 1.9 0 0 0-1.6 2.96v.1c-1.48 2.54-5.2 2.12-3.29-1.16l2.44-4.12 1.6-2.53c.95-1.7 2.12-2.33 2.86-2.33Zm23.34-8.24-2.97 5.18h-2.86l-.96 1.48h2.97l-6.58 10.99c-1.37 2.32-.42 4.44 2.23 4.44 1.28 0 2.66-.64 4.14-1.7l-.85 1.38h3.19l4.88-8.35c4.88-6.13 7.1-5.28 5.73-2.96l-4.14 7.08c-1.38 2.33-.43 4.44 2.23 4.44 1.9 0 4.03-1.48 6.05-3.38.1 2 1.8 3.38 4.35 3.38 3.6 0 7.21-2.75 9.87-5.81-.22-.43-.75-.95-1.17-1.06l-.21.21c-2.34 2.64-5.31 4.76-7.54 4.76-2.01 0-3.18-1.17-1.7-3.8l.32-.54c2.02.85 5.95.43 8.39-3.59l.42-.74c1.7-2.96.1-5.07-2.55-5.07-2.54 0-4.67 1.37-6.05 3.6l-3.07 5.28-.22.2c-2.33 2.65-4.56 4.76-5.94 4.76-.74 0-1.06-.53-.42-1.69l4.67-7.92c1.38-2.44.1-4.13-1.7-4.13-1.38 0-2.86.74-4.46 2.43l5.1-8.77h-3.19l-8.91 15.22-.21.21c-2.34 2.64-4.57 4.76-5.94 4.76-.75 0-1.07-.53-.32-1.7l6.9-11.83h2.65l.95-1.48h-2.65l2.97-5.18-3.4-.1Zm22.6 8.66c1.07-.1 1.6.95.54 2.75l-.43.74c-1.48 2.54-3.6 2.54-4.77 2.11l2.01-3.59c.75-1.27 1.8-1.9 2.66-2Zm47.01-5.7c-1.8 1.58-2.01 3.38-.84 4.86l.31.31c-1.38 2.01-3.29 4.66-5.4 7.09l-.22.2a6.66 6.66 0 0 1-4.88 2.33l2.97-5.07c1.91-3.28.1-6.45-2.87-6.45-2.44 0-4.34.95-6.25 4.12l-1.6 2.75-1.27 2.22-.21.21c-2.66 2.96-4.88 4.97-7.43 6.03l7.21-12.05h-1.9c0-1.27-1.38-3.07-3.4-3.07-1.7 0-4.14 1.38-5.52 3.6l-4.46 7.6c-1.38 2.33-.42 4.44 2.23 4.44.85 0 2.02-.42 3.08-1.05l-.85 1.48c-4.35 1.27-7 3.06-7 5.39 0 3.06 4.67 3.7 7-.21l2.44-4.13c2.55-.74 5.1-2.21 7.64-4.75 0 4.01 5.63 4.86 9.13.53h.74a9.98 9.98 0 0 0 6.58-3.07c1.49-1.8 2.76-3.38 5.3-6.76l.43.53c.42.53.53 1.16.21 1.8l-3.4 5.8c-1.37 2.33-.42 4.44 2.23 4.44 1.6 0 3.4-1.05 5.1-2.53-.1 1.48.95 2.53 2.76 2.53a6.7 6.7 0 0 0 3.07-1.05l-.84 1.48c-4.36 1.27-7 3.06-7 5.39 0 3.06 4.66 3.7 7-.21l2.44-4.13c2.65-.84 5.2-2.32 7.85-4.86.1 2.01 1.8 3.39 4.35 3.39 2.65 0 5.2-1.48 7.43-3.39-.1 4.12 5.62 4.97 9.12.64h.75c.95 0 2.33-.32 3.6-.95-.84 2.22-.1 3.7 1.8 3.7 1.81 0 3.72-1.59 5.31-3.07-.31 1.7.75 3.06 2.76 3.06 2.66 0 5.73-2.74 8.38-5.8 1.8-2.12 3.4-4.23 4.57-5.71-1.28 3.27-.64 9.19-3.61 9.19-1.06 0-1.49-1.16-1.49-1.16l-2.01 1.05s.63 2.54 3.5 2.54c.32 0 .64 0 .85-.1h.1c3.3-.43 6.48-2.96 8.92-5.71a1.9 1.9 0 0 0-1.17-1.06l-.21.21a23 23 0 0 1-3.82 3.38c1.06-2.95.85-7.6 2.76-11.62l-2.44-1.27a125 125 0 0 1-7.11 9.2l-.21.2c-2.34 2.65-4.57 4.76-5.95 4.76-.74 0-1.06-.53-.31-1.69l6.79-11.83h-3.19l-5.73 9.82c-2.44 2.22-4.35 3.39-4.88 3.17-.85-.31 0-1.48.43-2.22l6.26-10.77h-3.19l-4.98 8.56-.22.2a6.66 6.66 0 0 1-4.88 2.33l2.97-5.07c1.91-3.28.11-6.45-2.86-6.45-2.44 0-4.35.95-6.26 4.12l-1.6 2.75-1.27 2.22-.2.21c-2.34 2.64-5.31 4.76-7.54 4.76-2.02 0-3.19-1.16-1.7-3.8l.32-.53c2.01.84 5.94.42 8.38-3.6l.43-.74c1.7-2.96.1-5.07-2.55-5.07-2.55 0-4.67 1.37-6.05 3.6l-3.08 5.28-.21.2c-2.65 2.97-4.88 4.98-7.43 6.03l7.22-12.05h-1.91c0-1.26-1.38-3.06-3.4-3.06-1.7 0-4.14 1.37-5.52 3.6l-3.07 5.17-.22.21c-2.33 2.64-4.56 4.76-5.94 4.76-.74 0-1.06-.53-.32-1.7l3.19-5.49c1.06-1.9.63-3.06-.43-4.23l-1.8-2.1c-.43-.54-.43-1.17.21-1.8l-2.02-2.01Zm-10.92 5.28c1.06.1 1.59 1.37.42 3.17l-2.34 3.91h-.1a1.9 1.9 0 0 0-1.6 2.96v.1c-1.48 2.54-5.2 2.12-3.28-1.16l2.44-4.12 1.59-2.53c.96-1.7 2.02-2.33 2.87-2.33Zm53.26 0c1.06.1 1.6 1.37.43 3.17l-2.34 3.91h-.1a1.9 1.9 0 0 0-1.6 2.96v.1c-1.48 2.54-5.2 2.12-3.28-1.16l2.44-4.12 1.59-2.53c.85-1.7 2.01-2.33 2.86-2.33Zm-12.41.42c1.06-.1 1.6.95.53 2.75l-.43.74c-1.59 2.54-3.6 2.54-4.77 2.11l2.02-3.59c.74-1.27 1.8-1.9 2.65-2Zm-55.6.21c1.06 0 1.8.96.84 2.54l-2.44 4.23c-1.9 3.06-3.92 4.54-5.2 4.54-.74 0-1.06-.53-.31-1.69l4.45-7.71c.75-1.27 1.8-1.9 2.66-1.9Zm41.27 0c1.06 0 1.8.96.85 2.54l-2.44 4.23c-1.9 3.06-3.92 4.54-5.2 4.54-.74 0-1.06-.53-.32-1.69l4.46-7.71c.74-1.27 1.8-1.9 2.65-1.9Zm-48.07 15.75-1.48 2.54c-.64 1.16-1.8.95-1.8.1 0-.74.84-1.69 3.28-2.64Zm41.28 0-1.48 2.54c-.64 1.16-1.8.95-1.8.1.1-.74.84-1.69 3.28-2.64ZM107.18 71.65h30.66v2.01h-30.67v-2Zm240.98 0h30.66v2.01h-30.66v-2Z" fill="#766458"/><path d="M342.43 39.52v8.14h-22.07V.42h22.07v8.03h-14v11.42h11.13V28h-11.14v11.51h14ZM307.63.42h8.06v47.24h-8.07V24.41l-3.18 12.05h-7.85l-3.19-12.05v23.25h-8.06V.42h8.06l7.22 22.83 7-22.83Zm-33.86 8.03h-5.83v30.97h5.83V8.45Zm3.19-8.03a5.04 5.04 0 0 1 4.98 4.97v37.3a5.04 5.04 0 0 1-4.98 4.97h-12.1a5.04 5.04 0 0 1-4.99-4.96V5.39a4.97 4.97 0 0 1 4.99-4.97h12.1Zm-29.71 29.8 8.16-1.9V42.7a5.04 5.04 0 0 1-4.98 4.96h-12.1a5.04 5.04 0 0 1-4.99-4.96V5.39a4.97 4.97 0 0 1 5-4.97h12.09a5.04 5.04 0 0 1 4.98 4.97v9.62l-8.16 1.9V8.45h-5.84v30.97h5.84v-9.2Zm-17.83 9.3v8.14H210.1V.42h8.06v39.1h11.25Zm-22.71 0v8.14h-22.07V.42h22.07v8.03h-14v11.42h11.13V28H192.7v11.51h14ZM172.54.42h8.17l-1.38 47.24h-15.39l-2.12-19.55-2.12 19.55h-15.39L143.25.42h8.07l.64 39.1h.84l5.1-39.1h8.06l5.2 39.1h.85l.53-39.1Z" fill="#81B3D3"/><path d="m403.66 226.9 26.95-78.2h26.74l27.27 78.2H463.2l-3.93-14.16H428.9l-4.03 14.16h-21.22Zm37.88-55.06-7.96 25.9h21.33l-7.96-25.9-1.27-3.8c-.32-1.38-.64-2.65-.85-4.02a3.64 3.64 0 0 1-.32-1.38c-.1-.52-.21-.95-.21-1.37-.1.42-.22.85-.32 1.37-.1.43-.21.85-.21 1.38-.1.21-.1.31-.1.53 0 .1 0 .2-.12.31a44.58 44.58 0 0 1-.84 3.6c-.53 1.05-.85 2.22-1.17 3.38Zm-124.9 55.06v-78.2h20.7l29.6 40.15a42.32 42.32 0 0 1 2.12 3.7 68.35 68.35 0 0 1 2.13 3.8l1.48 3.18c.53 1.05.96 2.11 1.49 3.06l-.32-2.53c-.1-.85-.21-1.7-.21-2.54-.22-1.7-.32-3.38-.32-5.07-.1-1.8-.1-3.5-.1-5.29V148.8h20.58V227H373.2l-29.82-40.37c-.84-.95-1.59-2.11-2.33-3.48a54.56 54.56 0 0 1-2.12-4.34c-.43-1.05-.96-2-1.49-3.06-.42-.95-.74-2-1.27-2.96a98.42 98.42 0 0 1 1.27 15.53v38.58h-20.8Zm-93.38-58.02a38.91 38.91 0 0 1 15.81-15.96 43.43 43.43 0 0 1 24.1-5.39c1.05.1 2.11.21 3.07.21 3.08.43 6.05 1.17 9.02 2.22a40.26 40.26 0 0 1 8.6 4.12 38.2 38.2 0 0 1 13.58 15.12 42.23 42.23 0 0 1 4.77 19.55c0 .84 0 1.69-.1 2.53 0 .85-.11 1.59-.22 2.44-.2 1.8-.53 3.48-.95 5.17-.43 1.7-.96 3.28-1.6 4.87-3.5 7.92-8.8 14.16-16.12 18.49-7.33 4.33-14.97 6.55-23.03 6.55-.53 0-1.17 0-1.7-.1h-1.59a44.88 44.88 0 0 1-8.38-1.48 39.07 39.07 0 0 1-7.85-3.07 39.72 39.72 0 0 1-16.24-15.32c-3.93-6.66-5.94-13.64-5.94-20.82 0-1.06 0-2.12.1-3.17.11-1.06.22-2.22.53-3.28.43-2.11.96-4.33 1.7-6.34a21.87 21.87 0 0 1 2.44-6.34Zm56.03 28.11.64-2.53c.21-.96.42-1.8.53-2.75.1-.53.1-1.17.1-1.7.11-.52.11-1.05.11-1.58s0-.95-.1-1.48v-1.48a29.7 29.7 0 0 0-3.19-10.14 19 19 0 0 0-7.1-7.61c-.86-.43-1.6-.74-2.45-1.06-.85-.32-1.6-.63-2.44-.84a9.65 9.65 0 0 0-2.44-.32c-.85-.21-1.6-.21-2.44-.21-4.14 0-8.07 1.27-11.57 3.9a20.77 20.77 0 0 0-7.43 10.47l-.2.53v.53c-.22.74-.43 1.58-.64 2.32-.22.74-.32 1.48-.53 2.33l-.22 1.69v2.53c0 .22 0 .53.1.85.22 4.33 1.6 8.45 3.94 12.36a17.67 17.67 0 0 0 10.08 7.61l1.48.53c.53.1 1.06.21 1.6.21l1.48.21h1.48c4.36 0 8.28-1.27 11.68-3.8a22.4 22.4 0 0 0 7.53-10.57Zm-87.12 22.62a34.68 34.68 0 0 1-12.52 5.39 85.14 85.14 0 0 1-13.69 1.8c-1.27.1-2.65.1-3.93.1h-25.25v-78.2h26.63c1.28 0 2.55 0 3.83.1 4.45.21 8.8.84 13.05 1.8 4.35.95 8.38 2.85 11.99 5.39A32.19 32.19 0 0 1 203 168.67a42.74 42.74 0 0 1 4.35 16.17c.1.53.1.95.1 1.48v3.06a42.61 42.61 0 0 1-4.14 16.8 35.18 35.18 0 0 1-11.14 13.43Zm-34.38-10.25c.21 0 .53 0 .74.1h.85c.32 0 .64 0 .85.1h3.3c.95-.1 1.8-.2 2.54-.2 2.12-.22 4.24-.53 6.26-1.06a18.81 18.81 0 0 0 5.52-2.54 16.77 16.77 0 0 0 5.83-7.6A27.9 27.9 0 0 0 185.7 188v-.95c0-.32 0-.64-.1-.95a26.62 26.62 0 0 0-2.24-8.99 16.36 16.36 0 0 0-5.4-6.97 15.05 15.05 0 0 0-5.84-2.86 32.94 32.94 0 0 0-6.37-.84h-7.96v42.9ZM73.01 226.9v-78.2h48.17v17H94.02v13.75h25.46v16.7H94.02v13.2h27.06v17.55H73ZM9.97 201.75c.11.1.11.2.11.2.1 0 .21 0 .21.11a58.73 58.73 0 0 0 7.54 6.87 17.1 17.1 0 0 0 9.65 3.28c.11 0 .22 0 .22.1H28c.11 0 .22 0 .22.11h1.38c.42-.1.74-.21 1.06-.21 1.27-.21 2.54-.74 3.71-1.48a7.18 7.18 0 0 0 2.87-2.75l.2-.53.22-.52c.21-.53.32-1.06.32-1.59.1-.53.1-.95.1-1.37 0-2.22-.95-4.02-2.97-5.5a22.4 22.4 0 0 0-6.15-3.6c-.85-.31-1.7-.52-2.55-.73-.74-.21-1.59-.42-2.33-.64h-.21c-.11-.1-.22-.1-.22-.1a39.55 39.55 0 0 1-11.35-4.65 17.57 17.57 0 0 1-7.32-9.4c-.21-.85-.53-1.7-.75-2.54-.2-.96-.31-1.9-.31-2.86v-3.59l.31-2c.22-1.7.64-3.29 1.28-4.87a17.44 17.44 0 0 1 2.23-4.44 23.52 23.52 0 0 1 10.08-9.3c4.14-1.9 8.6-2.85 13.05-2.85 1.06 0 2.12.1 3.18.2l3.5.33a48.2 48.2 0 0 1 8.7 2.43 58.52 58.52 0 0 1 8.18 4.01L47.64 169a59.38 59.38 0 0 0-7-4.34 16.93 16.93 0 0 0-7.96-1.8h-.95a9.54 9.54 0 0 0-5.3 2.54c-1.6 1.38-2.45 2.86-2.45 4.55v.74c.1.2.21.53.32.74.21.52.42 1.05.85 1.58.42.53.85.95 1.38 1.38.95.74 2.23 1.47 3.92 2.1 1.7.54 3.5 1.17 5.42 1.7 1.59.42 3.07.84 4.56 1.27 1.48.31 2.76.63 3.71.95a18.9 18.9 0 0 1 10.4 8.24c2.34 3.8 3.5 7.82 3.61 12.05v.63c0 .53 0 .96-.1 1.48v1.38a31.84 31.84 0 0 1-4.14 12.15 23.44 23.44 0 0 1-9.02 8.88 30.93 30.93 0 0 1-4.35 1.69c-1.49.42-2.98.74-4.46 1.06-1.17.2-2.44.42-3.72.52-1.16.22-2.33.22-3.6.22h-1.49a44.37 44.37 0 0 1-14.54-3.17c-4.77-2.01-9.02-4.76-12.73-8.14l9.97-15.64ZM372.46 357.2c0-.31.1-.63.21-.95.1-.31.32-.63.53-.84.21-.21.53-.43.85-.64.32-.1.74-.2 1.17-.2.53 0 .95.1 1.38.31.42.21.85.42 1.16.74.22.32.43.63.64 1.06.1.42.21.84.21 1.37 0 .95-.2 1.7-.53 2.54a5.25 5.25 0 0 1-1.38 2c-.31.32-.53.53-.85.74-.31.22-.63.43-.95.53-.32.1-.53.32-.74.43-.11.1-.22.1-.43.2l-1.48-2.1c.2-.11.53-.22.85-.43.31-.1.63-.32.95-.53.32-.21.53-.53.74-.84.21-.32.32-.64.32-1.06a2.9 2.9 0 0 1-1.8-.63c-.64-.32-.85-.85-.85-1.7Zm8.28 0c0-.31.1-.63.2-.95.11-.31.33-.63.54-.84.21-.21.53-.43.85-.64.31-.1.74-.2 1.16-.2.53 0 .96.1 1.38.31.43.21.85.42 1.17.74.21.32.43.63.64 1.06.1.42.21.84.21 1.37 0 .84-.1 1.7-.53 2.54a5.24 5.24 0 0 1-1.38 2 5.3 5.3 0 0 1-.85.74c-.32.22-.64.43-.95.53-.32.1-.54.32-.75.43-.1.1-.2.1-.42.2l-1.38-2.1c.21-.11.53-.22.85-.43.32-.1.63-.32.95-.53.32-.21.53-.53.75-.84.2-.32.31-.64.31-1.06a2.9 2.9 0 0 1-1.8-.63c-.74-.32-.95-.85-.95-1.7ZM99.96 295.17c0 .32-.1.63-.21.95-.1.32-.32.63-.53.85a2.9 2.9 0 0 1-3.4.52c-.42-.2-.85-.42-1.17-.74a2.82 2.82 0 0 1-.63-1.05c-.1-.43-.22-.85-.22-1.38 0-.95.22-1.69.53-2.53.32-.74.75-1.48 1.38-2.01a5.25 5.25 0 0 1 1.8-1.27c.33-.1.54-.32.75-.42.21-.1.32-.1.43-.21l1.38 2.11c-.32.1-.64.21-.85.42-.32.1-.64.32-.96.53-.32.21-.53.53-.74.85-.21.31-.32.63-.32 1.05.74 0 1.27.22 1.8.64.75.42.96.95.96 1.69Zm-8.28 0c0 .63-.21 1.27-.74 1.8-.21.2-.53.42-.85.63a3.27 3.27 0 0 1-2.55-.1 4.37 4.37 0 0 1-1.16-.75 2.82 2.82 0 0 1-.64-1.05c-.1-.43-.21-.85-.21-1.38 0-.95.21-1.69.53-2.53.32-.74.74-1.48 1.38-2.01.21-.21.53-.53.85-.74.31-.21.63-.42.95-.53.32-.1.53-.32.74-.42.22-.1.32-.1.43-.21l1.38 2.11c-.21.1-.53.21-.85.42-.32.1-.64.32-.96.53-.31.21-.53.53-.74.85-.21.31-.32.63-.32 1.05.75 0 1.28.22 1.8.64.64.42.96.95.96 1.69Zm260.3 60.13H356l12.52-21.77h-4.03l-12.52 21.77Zm-.1 1.59a2.35 2.35 0 0 0-2.34 2.32c0 1.27.95 2.33 2.33 2.33 1.28 0 2.34-.95 2.34-2.33a2.28 2.28 0 0 0-2.34-2.32Zm-28.02-5.81 1.17-2.01c4.67-6.45 7.74-4.65 6.36-2.22l-1.9 3.27c-1.18 2.01-4.78 3.5-5.63.95Zm26.63 3.06a2.37 2.37 0 0 0-1.48-1.37l-.32.31a26.36 26.36 0 0 1-4.78 4.34c1.28-3.8.96-9.62 3.5-14.8l-2.97-1.58c-1.7 2.21-5.3 7.5-8.9 11.73l-.33.31c-2.86 3.38-5.73 6.03-7.42 6.03-.85 0-1.7-.85-1.7-2.65v-1.69c2.86.32 5.83-1.48 7.64-4.75l1.06-1.8c3.71-6.34-2.34-8.45-6.48-4.75l5.74-9.83H330l-11.46 19.76c-.2-.21-.42-.32-.74-.53l-.32.32c-2.86 3.38-6.58 6.02-9.44 6.02-2.44 0-3.93-1.58-2.13-4.75l4.14-7.19c2.34-3.91 6.37-3.28 4.04.85l-.53.95h3.29l.53-.95c2.12-3.7.1-6.45-3.19-6.45s-5.83 1.69-7.53 4.65l-3.93 6.76c-.1 0-.21-.1-.21-.1l-.32.31c-2.86 3.39-5.73 6.03-7.43 6.03-.84 0-1.38-.64-.42-2.22l8.6-14.9h-4.04l-7.1 12.36c-3.08 2.75-5.42 4.33-6.16 3.91-.96-.42 0-1.9.53-2.75l7.85-13.63h-4.03l-7.75 13.42c-.85.74-2.55 1.48-3.4 2.01 1.28-3.8.96-9.62 3.5-14.8l-2.96-1.58c-1.7 2.22-10.93 14.48-14.54 18.7.32.54.95.96 1.49 1.38a912.76 912.76 0 0 0 11.35-14.27c-1.6 4.13-.74 11.63-4.56 11.63-1.38 0-1.91-1.48-1.91-1.48l-2.55 1.27s.74 3.17 4.35 3.17c.43 0 .74 0 1.17-.1h.1c2.02-.32 4.88-1.17 6.8-2.55 0 1.6.95 2.65 2.65 2.65 2.23 0 4.67-2.01 6.58-3.8-.43 2.1.85 3.8 3.4 3.8 2.43 0 5.3-2.01 7.84-4.65 0 2.64 2.13 4.65 5.42 4.65s6.47-1.8 9.23-4.23l-2.23 3.91h4.03l4.56-7.93v3.17c0 3.39.64 5.18 3.93 5.18 3.3 0 7.11-3.48 10.4-7.4 2.23-2.64 4.24-5.38 5.73-7.29-1.6 4.13-.74 11.63-4.56 11.63-1.38 0-1.91-1.48-1.91-1.48l-2.55 1.27s.74 3.17 4.35 3.17c.43 0 .74 0 1.17-.1h.1c4.25-.54 8.28-3.81 11.25-7.3Zm-121.6-1.16h-.21a2.37 2.37 0 0 0-2.34 2.43c0 .53.1.95.42 1.37v.1c-1.9 3.18-6.47 2.65-4.13-1.58l3.07-5.28 1.91-3.28c2.87-4.75 6.69-2.85 4.25 1.27l-2.97 4.97Zm-26.96 15c-.84 1.48-2.22 1.27-2.22.21 0-1.05.95-2.21 4.03-3.38l-1.8 3.17Zm-30.56-14.58c-2.44 3.8-4.77 5.6-6.47 5.6-.85 0-1.38-.63-.42-2.22l5.62-9.72c2.12-3.7 6.47-2.75 4.46.84l-3.19 5.5Zm-12.73-15.53c1.17-2.01 2.55-2.96 3.6-2.96 1.5 0 2.24.95 2.24 2.43 0 3.7-4.67 11.41-10.83 10.46h-.85l5.84-9.94Zm98.47 14.9-.31.31c-2.87 3.38-5.74 6.03-7.43 6.03-.85 0-1.38-.64-.43-2.22l5.73-10.15c1.7-3.06.1-5.18-2.12-5.18-1.7 0-3.5.95-5.52 2.96l1.49-2.64h-4.03l-6.48 11.1c-.21-.1-.32-.21-.53-.32l-.32.32a8.28 8.28 0 0 1-6.04 2.96l3.81-6.45c2.45-4.23.22-8.14-3.6-8.14-3.08 0-5.52 1.27-7.75 5.18l-2.02 3.38-1.7 2.96c-.1-.1-.2-.1-.31-.21l-.32.32c-3.29 3.8-6.15 6.23-9.34 7.6l11.04-18.7h-4.03l-7.11 12.26c-3.08 2.85-5.52 4.44-6.26 4.12-.96-.42 0-1.9.53-2.75l7.85-13.63h-4.03l-6.37 11c-.1-.11-.21-.11-.32-.22l-.32.32c-2.86 3.38-5.73 6.02-7.43 6.02-.84 0-1.37-.63-.42-2.22l5.73-10.14c1.7-3.07.1-5.18-2.12-5.18-1.7 0-3.5.95-5.52 2.96l1.49-2.65h-4.04l-6.36 11c-.1-.11-.21-.11-.43-.21l-.32.31c-2.86 3.38-5.73 6.02-7.42 6.02-.85 0-1.38-.63-.43-2.21l6.47-11.31h-2.22c.1-1.7-1.6-4.02-4.25-4.02-2.12 0-5.2 1.7-6.9 4.65l-4.13 7.08c-.32-.2-.64-.42-.85-.52l-.32.31c-2.87 3.38-5.1 6.02-9.13 6.02-2.76 0-4.35-2.74-2.01-6.76l1.16-2c.75.1 1.49.2 2.23.2 4.25 0 9.13-2.21 12.31-7.71 1.17-2 1.6-3.8 1.6-5.39 0-3.6-2.34-5.92-5.31-5.92-2.23 0-4.78 1.59-6.58 4.65l-6.26 10.68a6.57 6.57 0 0 1-3.61-5.71c0-1.8.85-3.7 2.55-5.07l-1.28-2.33c-2.86 2.01-4.13 4.76-4.13 7.4 0 3.17 1.8 6.24 5.09 7.93l-1.17 2.1c-2.86 4.87-1.17 10.26 4.46 10.26 4.46 0 6.47-2 9.23-4.65-.85 2.54.42 4.65 3.18 4.65 1.6 0 3.61-1.06 5.52-2.64.21 1.58 1.38 2.64 3.5 2.64 1.91 0 4.03-1.16 6.05-2.96l-1.48 2.54h4.03l6.15-10.68c6.16-7.6 8.92-6.65 7.11-3.7l-5.2 8.99c-1.7 2.96-.53 5.7 2.76 5.7 2.12 0 4.57-1.48 6.8-3.59-.54 2.22.52 3.6 2.54 3.6 1.91 0 4.14-1.59 5.94-3.18l-2.23 3.8c-5.4 1.6-8.8 3.81-8.8 6.88 0 3.8 5.94 4.65 8.8-.32l3.08-5.28c3.4-1.06 6.69-3.17 10.08-6.56-.53 5.6 6.9 6.87 11.36 1.17h.84c1.49 0 3.4-.53 5.2-1.59l-2.65 4.65h4.03l6.16-10.67c6.15-7.61 8.91-6.66 7.1-3.7l-5.2 8.98c-1.69 2.96-.52 5.7 2.77 5.7s7.1-3.48 10.4-7.39c-.11 0-.75-.63-1.28-.84Zm125.85-37.63c-2.44 3.91-4.88 5.82-6.57 5.82-.85 0-1.38-.64-.43-2.22l5.62-9.73c2.13-3.7 6.48-2.74 4.46.85l-3.08 5.28Zm-38.4.22c-2.45 3.8-4.78 5.6-6.48 5.6-.85 0-1.38-.64-.43-2.22l5.63-9.73c2.12-3.7 6.47-2.74 4.45.85l-3.18 5.5Zm-42.35 14.58c-.85 1.48-2.23 1.27-2.23.21s.96-2.22 4.03-3.38l-1.8 3.17Zm8.49-30.12c1.17-2 2.55-2.96 3.6-2.96 6.38 0 1.6 15.22-8.59 12.9h-.85l5.84-9.94Zm82.45 14.9-.32.32c-2.86 3.38-5.73 6.02-7.43 6.02-.84 0-1.38-.63-.42-2.22l13.58-23.35h-4.03l-5.94 10.14a4.38 4.38 0 0 0-3.72-2.11c-2.12 0-5.2 1.69-6.9 4.65l-3.92 6.76c-.1 0-.21-.1-.21-.1l-.32.31c-2.87 3.38-5.3 6.03-7.11 6.03-.85 0-1.38-.64-.42-2.22l5.83-10.15c1.7-3.06.1-5.18-2.12-5.18-1.7 0-3.5.95-5.52 2.96l1.49-2.64h-4.04l-6.36 11c-.1-.11-.21-.11-.43-.22l-.31.32c-2.87 3.38-5.73 6.02-7.43 6.02-.85 0-1.38-.63-.43-2.22l6.48-11.3h-2.23c.1-1.7-1.6-4.02-4.25-4.02-2.12 0-5.2 1.69-6.9 4.65l-3.92 6.66-.21.2c-2.87 3.39-6.16 6.03-7.85 6.03-.85 0-1.39-.63-.43-2.22l4.03-6.97c1.38-2.43.75-3.8-.53-5.4l-2.23-2.64c-.53-.73-.53-1.58.22-2.32l-2.13-2.22c-2.23 2-2.44 4.33-1.06 6.13l.32.42c-1.8 2.54-4.14 5.92-6.79 8.99l.32.31c-3.3 3.8-6.16 6.24-9.23 7.61l5.09-8.66h-4.03l-.43.74c-2.12 3.7-4.56 6.34-7.64 6.34-2.76 0-3.18-2.75-.85-6.77l1.17-2c.74.1 1.49.2 2.23.2 14.22 0 21.12-19.02 8.6-19.02-2.23 0-4.78 1.59-6.59 4.65l-6.25 10.68a6.58 6.58 0 0 1-3.61-5.7c0-1.8.85-3.7 2.54-5.08l-1.27-2.33c-2.87 2.01-4.14 4.76-4.14 7.4 0 3.17 1.8 6.24 5.1 7.93l-1.17 2.11c-2.87 4.86-2.34 10.25 3.4 10.25a8.4 8.4 0 0 0 4.34-1.27l-1.06 1.8c-5.4 1.7-8.8 3.8-8.8 6.87 0 3.8 5.94 4.65 8.8-.32l3.08-5.28c4.14-1.27 8.28-4.12 12.63-9.2-.1-.1-.1-.2-.21-.42 1.8-2.11 3.29-4.12 6.36-8.14l.53.64c.53.63.75 1.48.21 2.22l-4.24 7.29c-1.7 2.96-.53 5.7 2.76 5.7 2.02 0 4.56-1.26 6.8-3.16 0 1.8 1.16 3.17 3.5 3.17 1.58 0 3.6-1.06 5.51-2.65.21 1.59 1.38 2.65 3.5 2.65 1.91 0 4.04-1.17 6.05-2.96l-1.49 2.53h4.04l6.15-10.67c6.16-7.6 8.92-6.66 7.11-3.7l-5.2 8.98c-1.7 2.96-.53 5.71 2.76 5.71 2.12 0 4.03-1.48 6.37-3.49-.21 2.01 1.06 3.5 3.5 3.5 1.6 0 3.6-1.07 5.52-2.65.21 1.58 1.38 2.64 3.5 2.64 3.29 0 7.1-3.49 10.4-7.4-.53-.31-1.17-.95-1.7-1.16ZM274 309.12c2.33-3.91 6.36-3.28 4.03.84l-.53.96c-1.91 3.27-4.57 3.17-6.05 2.64l2.55-4.44Zm-3.19 14.37c4.56 0 9.02-3.49 12.42-7.4a3.7 3.7 0 0 0-1.49-1.37l-.32.32c-2.86 3.38-6.58 6.02-9.44 6.02-2.44 0-3.93-1.58-2.12-4.75l.42-.74c2.55 1.05 7.43.52 10.4-4.65l.53-.96c2.12-3.7.1-6.44-3.18-6.44-3.19 0-5.84 1.69-7.54 4.65l-3.92 6.66s-.1 0-.1-.11l-.33.32c-2.86 3.38-5.73 6.02-7.43 6.02-.84 0-1.38-.63-.42-2.22l5.73-10.14c1.7-3.07.1-5.18-2.12-5.18-1.7 0-3.61.95-5.63 3.06l6.37-11.1h-4.03l-11.36 19.56c-.1-.1-.31-.21-.42-.32l-.32.32c-2.86 3.38-5.73 6.02-7.43 6.02-.84 0-1.38-.63-.42-2.22l8.6-14.9h3.28l1.17-1.9h-3.29l3.82-6.55h-4.03l-3.82 6.55h-3.6l-1.18 1.9h3.61l-8.06 13.95c-1.7 2.96-.53 5.7 2.76 5.7 2.01 0 4.13-1.26 6.26-3.16l-1.6 2.75h4.04l6.05-10.57c6.15-7.72 8.91-6.77 7.21-3.8l-5.2 8.98c-1.7 2.95-.53 5.7 2.76 5.7 2.44 0 5.1-1.9 7.75-4.44.21 2.54 2.33 4.44 5.62 4.44Zm-135.3-14.37c2.34-3.91 6.37-3.28 4.04.84l-.53.96c-1.91 3.27-4.56 3.17-6.05 2.64l2.55-4.44Zm24.52 9.72 5.62-9.72c2.13-3.7 6.48-2.75 4.46.84l-3.08 5.5c-2.44 3.8-4.77 5.6-6.47 5.6-.96-.1-1.49-.63-.53-2.22Zm57.3-9.72c2.34-3.91 6.37-3.28 4.03.84l-.53.96c-1.9 3.27-4.45 3.17-6.05 2.64l2.55-4.44ZM156 319.16c-.64 2.32.63 4.33 3.29 4.33 1.59 0 3.6-1.06 5.51-2.64.22 1.58 1.38 2.64 3.5 2.64 2.13 0 4.46-1.48 6.8-3.49-.43 2.12.53 3.5 2.54 3.5 2.23 0 4.67-2.02 6.58-3.81-.42 2.11.85 3.8 3.4 3.8 3.29 0 7.1-3.49 10.4-7.4 0 0-.1-.1-.1-.2 2.22-2.54 4.13-5.3 5.51-7.2-1.6 4.13-.74 11.63-4.56 11.63-1.38 0-1.91-1.48-1.91-1.48l-2.55 1.27s.74 3.28 4.35 3.28c.43 0 .74 0 1.17-.1h.1c2.97-.43 5.84-2.23 8.39-4.45.1 2.64 2.12 4.55 5.4 4.55 4.57 0 9.03-3.5 12.42-7.4a3.68 3.68 0 0 0-1.48-1.38l-.32.32c-2.87 3.38-6.58 6.03-9.44 6.03-2.45 0-3.93-1.59-2.13-4.76l.43-.74c2.55 1.06 7.43.53 10.4-4.65l.53-.95c2.12-3.7.1-6.45-3.19-6.45-3.28 0-5.83 1.7-7.53 4.65l-3.93 6.66h-.1l-.32.32a26.43 26.43 0 0 1-4.78 4.33c1.28-3.8.96-9.62 3.5-14.8L204.9 303c-1.7 2.22-5.3 7.5-8.9 11.73l.1.1-.1.22c-2.87 3.38-5.74 6.02-7.44 6.02-.84 0-1.38-.63-.42-2.22l8.6-14.9h-4.04l-7.1 12.37c-3.09 2.74-5.42 4.33-6.16 3.9-.96-.42 0-1.9.53-2.74l7.85-13.64h-4.03l-6.37 11c-.1-.11-.21-.11-.32-.21l-.31.31c-2.87 3.38-5.73 6.03-7.43 6.03-.85 0-1.38-.64-.43-2.22l6.48-11.31h-2.23c.1-1.7-1.6-4.02-4.25-4.02-2.12 0-5.2 1.7-6.9 4.65l-4.03 6.98c-.2-.1-.42-.32-.63-.43l-.32.32c-2.87 3.38-6.26 6.03-9.02 6.03-2.44 0-3.93-1.59-2.12-4.76l4.13-7.19c2.34-3.9 6.37-3.27 4.04.85l-.53.95h3.29l.53-.95c2.12-3.7.1-6.45-3.19-6.45s-5.4 1.7-7.1 4.65l-4.04 6.77c-.1-.11-.21-.11-.32-.21l-.32.31c-2.86 3.38-6.26 6.03-9.12 6.03-2.44 0-3.93-1.59-2.12-4.76l.42-.74c2.55 1.06 7.43.53 10.4-4.65l.53-.95c2.12-3.7.1-6.45-3.18-6.45-3.3 0-5.84 1.7-7.54 4.65l-4.24 7.19c-2.55 4.23-.32 8.14 4.35 8.14 3.5 0 6.37-2.12 9.34-4.87-.1 2.75 2.01 4.87 5.4 4.87 3.62.1 6.48-1.8 9.35-4.23Zm-39.16-14.8 3.3-5.5c2.96-5.06 6.68-2.1 4.66 1.7-1.6 2.85-3.82 3.8-7.96 3.8Zm-4.35 18.29c-2.44 0-4.24-.53-5.73-1.38.74-.84 1.38-1.8 2.02-2.85l6.79-11.63 1.06.11c9.34 1.9 5.62 15.75-4.14 15.75Zm9.97-16.38c8.07-2.75 8.7-12.8.75-12.8-2.23 0-4.78 1.6-6.58 4.66l-10.83 18.6a8.44 8.44 0 0 1-1.59 2.22c-2.76-3.8-2.01-9.51 1.91-11.94l-1.59-2.01c-8.38 5.28-5.94 20.71 8.07 20.71 11.99 0 17.5-14.37 9.86-19.44Z" fill="#fff"/></svg>